PathFileType	3	(X/Y/Z)	Static_01.trc
DataRate	CameraRate	NumFrames	NumMarkers	Units	OrigDataRate	OrigDataStartFrame	OrigNumFrames
200	200	9	32	mm	200	201	400
Frame#	Time	L_ASIS			R_ASIS			L_PSIS			R_PSIS			R_Knee_Med			R_Thigh_Upper			R_Knee_Lat			R_Thigh_Front			R_Thigh_Rear			L_Knee_Med			L_Thigh_Upper			L_Thigh_Front			L_Thigh_Rear			L_Knee_Lat			L_Ankle_Med			L_Shank_Upper			L_Shank_Front			L_Shank_Rear			L_Ankle_Lat			R_Ankle_Med			R_Shank_Upper			R_Shank_Rear			R_Shank_Front			R_Ankle_Lat			R_Heel			R_Toe_Tip			R_Toe_Med			R_Toe_Lat			L_Heel			L_Toe_Tip			L_Toe_Med			L_Toe_Lat			
		X1	Y1	Z1	X2	Y2	Z2	X3	Y3	Z3	X4	Y4	Z4	X5	Y5	Z5	X6	Y6	Z6	X7	Y7	Z7	X8	Y8	Z8	X9	Y9	Z9	X10	Y10	Z10	X11	Y11	Z11	X12	Y12	Z12	X13	Y13	Z13	X14	Y14	Z14	X15	Y15	Z15	X16	Y16	Z16	X17	Y17	Z17	X18	Y18	Z18	X19	Y19	Z19	X20	Y20	Z20	X21	Y21	Z21	X22	Y22	Z22	X23	Y23	Z23	X24	Y24	Z24	X25	Y25	Z25	X26	Y26	Z26	X27	Y27	Z27	X28	Y28	Z28	X29	Y29	Z29	X30	Y30	Z30	X31	Y31	Z31	X32	Y32	Z32
201	1	-1219.079	1000.2997	-1908.6731	-1029.5238	1003.3323	-1709.4768	-1297.5312	1045.8302	-1737.2593	-1209.3958	1054.2384	-1651.1198	-1094.3393	467.31786	-1687.4684	-1041.9975	826.27477	-1595.7768	-1040.9758	502.73741	-1592.0464	-994.98225	772.68033	-1634.199	-1041.6919	760.45354	-1583.577	-1262.466	465.06745	-1783.8709	-1330.9939	857.79458	-1886.9359	-1313.7249	785.6519	-1906.9617	-1358.246	791.9445	-1843.9933	-1339.8813	487.20736	-1854.1523	-1300.0229	74.222374	-1799.1422	-1412.5226	360.00043	-1828.3092	-1386.2455	303.10182	-1848.4243	-1414.4371	290.76475	-1808.0984	-1385.791	66.135709	-1830.7462	-1084.1525	77.731068	-1616.5322	-1072.2734	368.60463	-1521.1719	-1104.017	308.62554	-1517.5676	-1047.2478	304.9226	-1535.315	-1075.3398	63.508819	-1523.2169	-1146.1969	22.240109	-1525.5999	-956.29025	42.177828	-1629.5379	-966.64651	17.071972	-1654.188	-963.07349	18.14061	-1535.5352	-1392.2399	25.75651	-1760.354	-1263.9618	38.19308	-1938.6154	-1239.0688	14.956355	-1924.6387	-1359.928	11.020602	-1942.4458
202	1.005	-1219.0854	1000.3017	-1908.6883	-1029.5255	1003.3303	-1709.5027	-1297.5372	1045.8298	-1737.2714	-1209.3981	1054.24	-1651.1329	-1094.3534	467.31955	-1687.4749	-1041.9974	826.27547	-1595.7921	-1040.9874	502.74031	-1592.054	-994.98291	772.68074	-1634.2121	-1041.6957	760.45589	-1583.5917	-1262.5194	465.05627	-1783.8688	-1330.9984	857.7905	-1886.9493	-1313.7358	785.65149	-1906.9692	-1358.2582	791.94439	-1844.0028	-1339.8929	487.21797	-1854.1863	-1299.9933	74.237086	-1799.1316	-1412.5302	359.99865	-1828.3149	-1386.2515	303.1016	-1848.4278	-1414.442	290.76319	-1808.1028	-1385.7876	66.133706	-1830.7487	-1084.154	77.731723	-1616.5348	-1072.2841	368.60728	-1521.1783	-1104.024	308.62467	-1517.5805	-1047.2544	304.92596	-1535.3182	-1075.3406	63.512676	-1523.2188	-1146.198	22.242276	-1525.6008	-956.28189	42.190465	-1629.5401	-966.66075	17.060099	-1654.1757	-963.07404	18.14354	-1535.5363	-1392.2506	25.765335	-1760.3737	-1263.9611	38.194597	-1938.6143	-1239.0698	14.957113	-1924.6396	-1359.9209	11.023653	-1942.4471
203	1.01	-1219.0922	1000.3033	-1908.7028	-1029.5271	1003.328	-1709.5285	-1297.5437	1045.8301	-1737.2828	-1209.4012	1054.2436	-1651.144	-1094.3704	467.32036	-1687.4799	-1041.9975	826.27624	-1595.8069	-1041.0003	502.743	-1592.0607	-994.98404	772.6808	-1634.2247	-1041.7001	760.45804	-1583.6059	-1262.5749	465.04536	-1783.8669	-1331.0034	857.78674	-1886.9622	-1313.7462	785.651	-1906.9765	-1358.2702	791.94447	-1844.0121	-1339.9042	487.22778	-1854.2208	-1299.9641	74.251397	-1799.1214	-1412.5378	359.99667	-1828.321	-1386.2574	303.10165	-1848.4311	-1414.4478	290.76265	-1808.1076	-1385.7844	66.131722	-1830.7513	-1084.1549	77.732157	-1616.539	-1072.2956	368.6097	-1521.1836	-1104.0321	308.62391	-1517.5926	-1047.262	304.92893	-1535.3208	-1075.3415	63.516395	-1523.2205	-1146.1987	22.244691	-1525.6012	-956.27391	42.202641	-1629.5413	-966.67572	17.047044	-1654.1638	-963.07475	18.146152	-1535.5373	-1392.262	25.775067	-1760.3957	-1263.9605	38.195691	-1938.6129	-1239.0709	14.957579	-1924.6402	-1359.9153	11.025267	-1942.4483
204	1.015	-1219.0998	1000.3044	-1908.7164	-1029.5285	1003.3253	-1709.5542	-1297.5504	1045.831	-1737.2935	-1209.405	1054.2491	-1651.1528	-1094.3909	467.31982	-1687.4831	-1041.9977	826.27694	-1595.8214	-1041.0145	502.74538	-1592.0666	-994.9857	772.68034	-1634.2372	-1041.7048	760.45983	-1583.6198	-1262.6303	465.03555	-1783.8657	-1331.009	857.78334	-1886.9746	-1313.7559	785.65033	-1906.9839	-1358.2821	791.94463	-1844.0213	-1339.9148	487.23651	-1854.2561	-1299.9347	74.265649	-1799.1116	-1412.5459	359.99406	-1828.3278	-1386.2633	303.10188	-1848.4342	-1414.4545	290.76301	-1808.1128	-1385.7816	66.129647	-1830.7538	-1084.1553	77.732359	-1616.5448	-1072.3079	368.61175	-1521.1881	-1104.0409	308.62326	-1517.6036	-1047.2707	304.93136	-1535.3229	-1075.3423	63.519795	-1523.222	-1146.199	22.247166	-1525.6013	-956.26656	42.213972	-1629.5416	-966.69097	17.033095	-1654.1527	-963.07565	18.148318	-1535.5383	-1392.2741	25.785341	-1760.4196	-1263.96	38.196208	-1938.6114	-1239.0718	14.957691	-1924.6406	-1359.9111	11.025069	-1942.4493
205	1.02	-1219.1085	1000.3049	-1908.7291	-1029.5298	1003.3221	-1709.5798	-1297.5572	1045.8322	-1737.3034	-1209.4095	1054.2564	-1651.159	-1094.4151	467.31768	-1687.4844	-1041.9977	826.27748	-1595.8356	-1041.0297	502.74741	-1592.072	-994.98792	772.67927	-1634.25	-1041.7095	760.46119	-1583.6334	-1262.6828	465.02789	-1783.8658	-1331.0152	857.78027	-1886.9863	-1313.765	785.64933	-1906.9916	-1358.2939	791.94473	-1844.0303	-1339.9248	487.24377	-1854.2926	-1299.9047	74.280301	-1799.1023	-1412.555	359.99047	-1828.3354	-1386.2693	303.10221	-1848.4367	-1414.4621	290.76407	-1808.1183	-1385.7794	66.127323	-1830.7563	-1084.1553	77.732288	-1616.5519	-1072.3206	368.61334	-1521.1916	-1104.0503	308.62274	-1517.6136	-1047.28	304.93319	-1535.3245	-1075.3432	63.522772	-1523.2233	-1146.1991	22.249537	-1525.6011	-956.26002	42.224145	-1629.5408	-966.70617	17.018473	-1654.1426	-963.07675	18.149962	-1535.5392	-1392.2865	25.795725	-1760.4445	-1263.9597	38.196045	-1938.6098	-1239.0725	14.957359	-1924.6406	-1359.9083	11.022994	-1942.4499
206	1.025	-1219.1185	1000.3047	-1908.7408	-1029.5309	1003.3184	-1709.6054	-1297.564	1045.8335	-1737.3127	-1209.4147	1054.2655	-1651.1623	-1094.443	467.31386	-1687.4837	-1041.9975	826.2778	-1595.8498	-1041.0457	502.7491	-1592.0768	-994.99064	772.67755	-1634.2633	-1041.7141	760.46213	-1583.647	-1262.7291	465.0236	-1783.8677	-1331.022	857.77744	-1886.9973	-1313.7737	785.64787	-1906.9996	-1358.3058	791.94462	-1844.0393	-1339.9341	487.2491	-1854.3307	-1299.8733	74.295765	-1799.0933	-1412.5654	359.98567	-1828.3438	-1386.2756	303.1026	-1848.4384	-1414.4705	290.76553	-1808.1242	-1385.7776	66.124637	-1830.7586	-1084.1548	77.731923	-1616.5599	-1072.3335	368.61449	-1521.1942	-1104.0601	308.62233	-1517.6223	-1047.29	304.93447	-1535.3258	-1075.3441	63.525296	-1523.2245	-1146.1989	22.251696	-1525.6009	-956.25443	42.232972	-1629.539	-966.72113	17.003322	-1654.1336	-963.078	18.151082	-1535.5402	-1392.2993	25.805801	-1760.4695	-1263.9595	38.195196	-1938.6082	-1239.0729	14.956468	-1924.6405	-1359.9067	11.019302	-1942.4503
207	1.03	-1219.1299	1000.304	-1908.7513	-1029.5319	1003.3143	-1709.6308	-1297.5704	1045.8346	-1737.3211	-1209.4209	1054.2763	-1651.1624	-1094.4744	467.30846	-1687.481	-1041.9969	826.2779	-1595.8642	-1041.0623	502.75053	-1592.0812	-994.99374	772.67523	-1634.2773	-1041.7182	760.46272	-1583.6605	-1262.7656	465.02393	-1783.8718	-1331.0295	857.7747	-1887.0074	-1313.7822	785.64587	-1907.0079	-1358.3179	791.94421	-1844.0483	-1339.9431	487.25212	-1854.3708	-1299.8403	74.312315	-1799.0842	-1412.5774	359.97952	-1828.3531	-1386.2824	303.10306	-1848.4392	-1414.4798	290.76707	-1808.1304	-1385.7761	66.121601	-1830.7609	-1084.1539	77.731298	-1616.5685	-1072.3463	368.6153	-1521.1957	-1104.0703	308.62199	-1517.6298	-1047.3001	304.93534	-1535.3266	-1075.345	63.527403	-1523.2255	-1146.1986	22.253584	-1525.6006	-956.24989	42.240419	-1629.5361	-966.73582	16.987777	-1654.1255	-963.07937	18.151756	-1535.5411	-1392.3121	25.815199	-1760.4934	-1263.9593	38.193767	-1938.6065	-1239.073	14.954921	-1924.6402	-1359.9058	11.014494	-1942.4507
208	1.035	-1219.1425	1000.3031	-1908.7606	-1029.5327	1003.3097	-1709.6561	-1297.5765	1045.8354	-1737.3287	-1209.4281	1054.2888	-1651.1588	-1094.5093	467.30165	-1687.4763	-1041.9957	826.27783	-1595.879	-1041.0792	502.7518	-1592.0851	-994.99707	772.67239	-1634.2922	-1041.7217	760.4631	-1583.6742	-1262.7888	465.03007	-1783.8786	-1331.0378	857.77197	-1887.0166	-1313.7909	785.64331	-1907.0166	-1358.3303	791.94338	-1844.0575	-1339.9519	487.25276	-1854.4129	-1299.8059	74.329942	-1799.0748	-1412.5909	359.97201	-1828.3631	-1386.2899	303.10364	-1848.4388	-1414.49	290.76838	-1808.137	-1385.775	66.118329	-1830.7629	-1084.1528	77.730505	-1616.5771	-1072.3589	368.61593	-1521.1961	-1104.0807	308.62169	-1517.6361	-1047.3104	304.93598	-1535.3271	-1075.3459	63.529167	-1523.2263	-1146.1983	22.25518	-1525.6005	-956.24646	42.246577	-1629.532	-966.75022	16.972013	-1654.1181	-963.08086	18.152117	-1535.5421	-1392.3248	25.823581	-1760.515	-1263.9591	38.191944	-1938.6048	-1239.0727	14.952725	-1924.6399	-1359.9054	11.009151	-1942.4512
209	1.04	-1219.1561	1000.3022	-1908.7686	-1029.5335	1003.3048	-1709.6811	-1297.582	1045.8358	-1737.3355	-1209.4364	1054.303	-1651.1511	-1094.5474	467.29369	-1687.4695	-1041.9939	826.27768	-1595.8942	-1041.0965	502.75306	-1592.0887	-995.00045	772.66916	-1634.308	-1041.7244	760.46341	-1583.688	-1262.7965	465.04274	-1783.8881	-1331.047	857.7692	-1887.0249	-1313.8	785.64023	-1907.0254	-1358.3431	791.94206	-1844.0668	-1339.961	487.25128	-1854.4568	-1299.7713	74.348322	-1799.0647	-1412.606	359.96322	-1828.3737	-1386.2983	303.10441	-1848.4369	-1414.5013	290.76926	-1808.1439	-1385.7744	66.114991	-1830.7649	-1084.1517	77.729665	-1616.5854	-1072.3712	368.61655	-1521.1953	-1104.0911	308.62139	-1517.6413	-1047.3205	304.93661	-1535.3271	-1075.3469	63.530678	-1523.2269	-1146.198	22.256529	-1525.6006	-956.24416	42.251617	-1629.5269	-966.76429	16.956257	-1654.1113	-963.08252	18.15231	-1535.5431	-1392.337	25.830637	-1760.5336	-1263.9589	38.189926	-1938.6031	-1239.0722	14.950056	-1924.6395	-1359.9051	11.003801	-1942.452
